<svg width="776" height="277" viewBox="0 0 776 277" fill="none" xmlns="http://www.w3.org/2000/svg" xmlns:xlink="http://www.w3.org/1999/xlink">
<rect x="91.9492" y="76" width="518.344" height="200.522" fill="url(#pattern0_458_17)"/>
<g filter="url(#filter0_d_458_17)">
<path d="M6.32102 97V24.2727H21.6974V56.3395H22.6562L48.8281 24.2727H67.2585L40.2699 56.8366L67.5781 97H49.1832L29.2614 67.0994L21.6974 76.3324V97H6.32102Z" fill="#1EFF00"/>
</g>
<g filter="url(#filter1_d_458_17)">
<path d="M32.1023 199H6.32102V126.273H32.3153C39.6307 126.273 45.928 127.729 51.2074 130.641C56.4867 133.529 60.5469 137.684 63.3878 143.105C66.2524 148.527 67.6847 155.013 67.6847 162.565C67.6847 170.141 66.2524 176.652 63.3878 182.097C60.5469 187.542 56.4631 191.72 51.1364 194.632C45.8333 197.544 39.4886 199 32.1023 199ZM21.6974 185.825H31.4631C36.0085 185.825 39.8319 185.02 42.9332 183.411C46.0582 181.777 48.402 179.256 49.9645 175.847C51.5507 172.414 52.3438 167.987 52.3438 162.565C52.3438 157.191 51.5507 152.8 49.9645 149.391C48.402 145.982 46.0701 143.472 42.9688 141.862C39.8674 140.252 36.044 139.447 31.4986 139.447H21.6974V185.825Z" fill="#FF0000"/>
</g>
<g filter="url(#filter2_d_458_17)">
<path d="M80.1296 104.189C79.8455 101.324 78.6263 99.099 76.4719 97.5128C74.3176 95.9266 71.3938 95.1335 67.7006 95.1335C65.1912 95.1335 63.0723 95.4886 61.3441 96.1989C59.6159 96.8854 58.2901 97.8442 57.3668 99.0753C56.4672 100.306 56.0174 101.703 56.0174 103.266C55.9701 104.568 56.2423 105.704 56.8342 106.675C57.4497 107.645 58.2901 108.486 59.3555 109.196C60.4208 109.883 61.6519 110.486 63.0487 111.007C64.4454 111.504 65.9369 111.93 67.5231 112.286L74.0572 113.848C77.2295 114.558 80.1415 115.505 82.793 116.689C85.4445 117.873 87.7409 119.329 89.6822 121.057C91.6235 122.785 93.1268 124.821 94.1921 127.165C95.2811 129.509 95.8375 132.196 95.8612 135.226C95.8375 139.677 94.7011 143.536 92.4521 146.803C90.2267 150.046 87.007 152.567 82.793 154.366C78.6026 156.142 73.5482 157.03 67.6296 157.03C61.7584 157.03 56.6448 156.13 52.2887 154.331C47.9563 152.532 44.5709 149.868 42.1325 146.341C39.7177 142.79 38.4511 138.398 38.3327 133.166H53.212C53.3777 135.605 54.0761 137.641 55.3072 139.274C56.5619 140.884 58.2309 142.103 60.3143 142.932C62.4213 143.737 64.8005 144.139 67.4521 144.139C70.0562 144.139 72.3171 143.76 74.2347 143.003C76.176 142.245 77.6793 141.192 78.7447 139.842C79.81 138.493 80.3427 136.942 80.3427 135.19C80.3427 133.557 79.8574 132.184 78.8867 131.071C77.9397 129.958 76.543 129.011 74.6964 128.23C72.8735 127.449 70.6362 126.739 67.9847 126.099L60.0657 124.111C53.9341 122.619 49.0927 120.287 45.5415 117.115C41.9904 113.943 40.2267 109.67 40.2504 104.295C40.2267 99.892 41.3986 96.045 43.766 92.7543C46.1571 89.4635 49.436 86.8949 53.6026 85.0483C57.7693 83.2017 62.5041 82.2784 67.8072 82.2784C73.2049 82.2784 77.9161 83.2017 81.9407 85.0483C85.989 86.8949 89.1377 89.4635 91.3867 92.7543C93.6358 96.045 94.7958 99.8565 94.8668 104.189H80.1296Z" fill="#FFE100"/>
</g>
<path d="M109.447 110V48.1818H134.199C138.746 48.1818 142.54 48.8559 145.578 50.2042C148.617 51.5524 150.901 53.4239 152.43 55.8185C153.959 58.1931 154.724 60.9298 154.724 64.0288C154.724 66.4435 154.241 68.5665 153.275 70.3977C152.309 72.2088 150.981 73.6979 149.291 74.8651C147.621 76.0121 145.709 76.8271 143.556 77.31V77.9137C145.91 78.0143 148.114 78.6784 150.166 79.9059C152.239 81.1334 153.919 82.8539 155.207 85.0675C156.495 87.2609 157.139 89.8769 157.139 92.9155C157.139 96.1955 156.324 99.1235 154.694 101.699C153.084 104.255 150.699 106.277 147.54 107.766C144.381 109.255 140.487 110 135.859 110H109.447ZM122.517 99.3146H133.172C136.815 99.3146 139.471 98.6204 141.141 97.2319C142.811 95.8233 143.646 93.9518 143.646 91.6175C143.646 89.9071 143.234 88.3978 142.409 87.0898C141.584 85.7818 140.406 84.7556 138.877 84.011C137.368 83.2665 135.567 82.8942 133.474 82.8942H122.517V99.3146ZM122.517 74.0501H132.206C133.997 74.0501 135.587 73.7382 136.975 73.1143C138.384 72.4704 139.491 71.5649 140.296 70.3977C141.121 69.2306 141.533 67.832 141.533 66.2021C141.533 63.9684 140.739 62.1674 139.149 60.799C137.579 59.4306 135.346 58.7464 132.448 58.7464H122.517V74.0501ZM176.299 110H162.293L183.633 48.1818H200.476L221.787 110H207.781L192.296 62.3082H191.813L176.299 110ZM175.423 85.7013H208.506V95.9038H175.423V85.7013ZM229.227 48.1818H245.346L262.37 89.7159H263.095L280.119 48.1818H296.237V110H283.56V69.7638H283.047L267.049 109.698H258.416L242.418 69.6129H241.905V110H229.227V48.1818ZM307.006 110V48.1818H331.757C336.305 48.1818 340.098 48.8559 343.137 50.2042C346.175 51.5524 348.459 53.4239 349.989 55.8185C351.518 58.1931 352.283 60.9298 352.283 64.0288C352.283 66.4435 351.8 68.5665 350.834 70.3977C349.868 72.2088 348.54 73.6979 346.849 74.8651C345.179 76.0121 343.268 76.8271 341.114 77.31V77.9137C343.469 78.0143 345.672 78.6784 347.725 79.9059C349.797 81.1334 351.478 82.8539 352.766 85.0675C354.054 87.2609 354.697 89.8769 354.697 92.9155C354.697 96.1955 353.882 99.1235 352.252 101.699C350.643 104.255 348.258 106.277 345.099 107.766C341.939 109.255 338.046 110 333.417 110H307.006ZM320.076 99.3146H330.731C334.373 99.3146 337.029 98.6204 338.7 97.2319C340.37 95.8233 341.205 93.9518 341.205 91.6175C341.205 89.9071 340.792 88.3978 339.967 87.0898C339.142 85.7818 337.965 84.7556 336.436 84.011C334.926 83.2665 333.125 82.8942 331.033 82.8942H320.076V99.3146ZM320.076 74.0501H329.765C331.556 74.0501 333.146 73.7382 334.534 73.1143C335.943 72.4704 337.049 71.5649 337.854 70.3977C338.679 69.2306 339.092 67.832 339.092 66.2021C339.092 63.9684 338.297 62.1674 336.707 60.799C335.138 59.4306 332.904 58.7464 330.006 58.7464H320.076V74.0501ZM376.272 48.1818V110H363.202V48.1818H376.272ZM438.732 48.1818V110H427.442L400.548 71.092H400.095V110H387.025V48.1818H398.495L425.179 87.0597H425.722V48.1818H438.732ZM449.53 110V48.1818H491.185V58.9577H462.6V73.6879H489.042V84.4638H462.6V99.2241H491.306V110H449.53ZM501.576 110V48.1818H525.965C530.634 48.1818 534.618 49.0169 537.918 50.6871C541.239 52.3372 543.764 54.6816 545.495 57.7202C547.245 60.7386 548.121 64.2904 548.121 68.3754C548.121 72.4805 547.235 76.0121 545.464 78.9702C543.694 81.9081 541.128 84.1619 537.767 85.7315C534.427 87.3011 530.382 88.0859 525.633 88.0859H509.303V77.5817H523.52C526.016 77.5817 528.088 77.2396 529.738 76.5554C531.388 75.8712 532.616 74.8449 533.421 73.4766C534.246 72.1082 534.658 70.4078 534.658 68.3754C534.658 66.3228 534.246 64.5922 533.421 63.1836C532.616 61.775 531.378 60.7084 529.708 59.984C528.058 59.2395 525.975 58.8672 523.46 58.8672H514.646V110H501.576ZM534.96 81.8679L550.324 110H535.896L520.864 81.8679H534.96ZM551.162 48.1818H565.801L579.898 74.8047H580.501L594.598 48.1818H609.237L586.689 88.1463V110H573.71V88.1463L551.162 48.1818Z" fill="url(#paint0_linear_458_17)"/>
<path d="M6.45597 246L14.8977 229.295V229.156H5.06392V225.636H19.3523V229.206L10.9006 246H6.45597ZM23.6552 246L32.0969 229.295V229.156H22.2631V225.636H36.5515V229.206L28.0998 246H23.6552ZM53.4201 246.278C52.0148 246.278 50.762 246.02 49.6616 245.503C48.5678 244.986 47.6995 244.273 47.0565 243.365C46.4135 242.457 46.0787 241.416 46.0522 240.243H50.2283C50.2747 241.032 50.6062 241.671 51.2227 242.162C51.8391 242.652 52.5716 242.898 53.4201 242.898C54.0962 242.898 54.6928 242.749 55.2099 242.45C55.7335 242.145 56.1412 241.724 56.4329 241.188C56.7312 240.644 56.8803 240.021 56.8803 239.318C56.8803 238.602 56.7279 237.973 56.4229 237.429C56.1246 236.885 55.7103 236.461 55.18 236.156C54.6497 235.851 54.0432 235.696 53.3604 235.689C52.7638 235.689 52.1838 235.812 51.6204 236.057C51.0636 236.302 50.6294 236.637 50.3178 237.061L46.4897 236.375L47.4542 225.636H59.9031V229.156H51.0039L50.4769 234.257H50.5962C50.9542 233.753 51.4944 233.336 52.217 233.004C52.9395 232.673 53.7482 232.507 54.6431 232.507C55.8694 232.507 56.9632 232.795 57.9244 233.372C58.8855 233.949 59.6445 234.741 60.2013 235.749C60.7582 236.75 61.0333 237.903 61.0266 239.209C61.0333 240.581 60.7151 241.801 60.0721 242.868C59.4357 243.929 58.5442 244.764 57.3974 245.374C56.2572 245.977 54.9315 246.278 53.4201 246.278ZM72.8888 225.636V246H68.5835V229.723H68.4641L63.8008 232.646V228.828L68.842 225.636H72.8888ZM86.5881 225.636V246H82.2827V229.723H82.1634L77.5 232.646V228.828L82.5412 225.636H86.5881ZM105.893 246.447C104.183 246.441 102.711 246.02 101.478 245.185C100.252 244.349 99.3071 243.14 98.6442 241.555C97.9879 239.971 97.6631 238.065 97.6697 235.838C97.6697 233.617 97.9979 231.725 98.6541 230.161C99.317 228.596 100.262 227.406 101.488 226.591C102.721 225.769 104.189 225.358 105.893 225.358C107.596 225.358 109.061 225.769 110.288 226.591C111.521 227.413 112.469 228.606 113.131 230.17C113.794 231.728 114.122 233.617 114.116 235.838C114.116 238.072 113.784 239.981 113.121 241.565C112.465 243.15 111.524 244.359 110.298 245.195C109.071 246.03 107.603 246.447 105.893 246.447ZM105.893 242.878C107.059 242.878 107.991 242.291 108.687 241.118C109.383 239.945 109.728 238.185 109.721 235.838C109.721 234.294 109.562 233.008 109.244 231.98C108.932 230.953 108.488 230.18 107.911 229.663C107.341 229.146 106.668 228.888 105.893 228.888C104.733 228.888 103.805 229.468 103.109 230.628C102.413 231.788 102.061 233.525 102.055 235.838C102.055 237.402 102.21 238.708 102.522 239.756C102.84 240.796 103.288 241.579 103.864 242.102C104.441 242.619 105.117 242.878 105.893 242.878ZM117.186 246V242.898L124.434 236.186C125.051 235.589 125.568 235.053 125.985 234.575C126.41 234.098 126.731 233.631 126.95 233.173C127.169 232.709 127.278 232.209 127.278 231.672C127.278 231.075 127.142 230.562 126.87 230.131C126.599 229.693 126.227 229.358 125.757 229.126C125.286 228.888 124.752 228.768 124.156 228.768C123.533 228.768 122.989 228.894 122.525 229.146C122.061 229.398 121.703 229.759 121.451 230.23C121.199 230.701 121.074 231.261 121.074 231.911H116.987C116.987 230.578 117.288 229.421 117.892 228.44C118.495 227.459 119.34 226.7 120.427 226.163C121.514 225.626 122.767 225.358 124.186 225.358C125.644 225.358 126.913 225.616 127.994 226.134C129.081 226.644 129.926 227.353 130.529 228.261C131.133 229.17 131.434 230.21 131.434 231.384C131.434 232.152 131.282 232.911 130.977 233.661C130.679 234.41 130.145 235.241 129.376 236.156C128.607 237.064 127.523 238.155 126.125 239.428L123.152 242.341V242.48H131.703V246H117.186ZM149.287 246.447C147.577 246.441 146.105 246.02 144.873 245.185C143.646 244.349 142.702 243.14 142.039 241.555C141.382 239.971 141.058 238.065 141.064 235.838C141.064 233.617 141.392 231.725 142.049 230.161C142.712 228.596 143.656 227.406 144.882 226.591C146.115 225.769 147.584 225.358 149.287 225.358C150.991 225.358 152.456 225.769 153.682 226.591C154.915 227.413 155.863 228.606 156.526 230.17C157.189 231.728 157.517 233.617 157.51 235.838C157.51 238.072 157.179 239.981 156.516 241.565C155.86 243.15 154.918 244.359 153.692 245.195C152.466 246.03 150.998 246.447 149.287 246.447ZM149.287 242.878C150.454 242.878 151.385 242.291 152.081 241.118C152.777 239.945 153.122 238.185 153.115 235.838C153.115 234.294 152.956 233.008 152.638 231.98C152.327 230.953 151.882 230.18 151.306 229.663C150.736 229.146 150.063 228.888 149.287 228.888C148.127 228.888 147.199 229.468 146.503 230.628C145.807 231.788 145.456 233.525 145.449 235.838C145.449 237.402 145.605 238.708 145.917 239.756C146.235 240.796 146.682 241.579 147.259 242.102C147.836 242.619 148.512 242.878 149.287 242.878ZM168.565 246.447C166.854 246.441 165.383 246.02 164.15 245.185C162.924 244.349 161.979 243.14 161.316 241.555C160.66 239.971 160.335 238.065 160.342 235.838C160.342 233.617 160.67 231.725 161.326 230.161C161.989 228.596 162.933 227.406 164.16 226.591C165.393 225.769 166.861 225.358 168.565 225.358C170.268 225.358 171.733 225.769 172.96 226.591C174.192 227.413 175.14 228.606 175.803 230.17C176.466 231.728 176.794 233.617 176.788 235.838C176.788 238.072 176.456 239.981 175.793 241.565C175.137 243.15 174.196 244.359 172.969 245.195C171.743 246.03 170.275 246.447 168.565 246.447ZM168.565 242.878C169.731 242.878 170.663 242.291 171.359 241.118C172.055 239.945 172.399 238.185 172.393 235.838C172.393 234.294 172.234 233.008 171.915 231.98C171.604 230.953 171.16 230.18 170.583 229.663C170.013 229.146 169.34 228.888 168.565 228.888C167.405 228.888 166.477 229.468 165.781 230.628C165.085 231.788 164.733 233.525 164.727 235.838C164.727 237.402 164.882 238.708 165.194 239.756C165.512 240.796 165.96 241.579 166.536 242.102C167.113 242.619 167.789 242.878 168.565 242.878Z" fill="#FFF700"/>
<defs>
<pattern id="pattern0_458_17" patternContentUnits="objectBoundingBox" width="1" height="1">
<use xlink:href="#image0_458_17" transform="matrix(0.00108578 0 0 0.0028067 0 -0.00520586)"/>
</pattern>
<filter id="filter0_d_458_17" x="6.32031" y="24.2734" width="69.2578" height="84.7266" filterUnits="userSpaceOnUse" color-interpolation-filters="sRGB">
<feFlood flood-opacity="0" result="BackgroundImageFix"/>
<feColorMatrix in="SourceAlpha" type="matrix" values="0 0 0 0 0 0 0 0 0 0 0 0 0 0 0 0 0 0 127 0" result="hardAlpha"/>
<feOffset dx="4" dy="8"/>
<feGaussianBlur stdDeviation="2"/>
<feComposite in2="hardAlpha" operator="out"/>
<feColorMatrix type="matrix" values="0 0 0 0 0.383333 0 0 0 0 1 0 0 0 0 0 0 0 0 0.45 0"/>
<feBlend mode="normal" in2="BackgroundImageFix" result="effect1_dropShadow_458_17"/>
<feBlend mode="normal" in="SourceGraphic" in2="effect1_dropShadow_458_17" result="shape"/>
</filter>
<filter id="filter1_d_458_17" x="6.32031" y="126.273" width="69.3633" height="84.7266" filterUnits="userSpaceOnUse" color-interpolation-filters="sRGB">
<feFlood flood-opacity="0" result="BackgroundImageFix"/>
<feColorMatrix in="SourceAlpha" type="matrix" values="0 0 0 0 0 0 0 0 0 0 0 0 0 0 0 0 0 0 127 0" result="hardAlpha"/>
<feOffset dx="4" dy="8"/>
<feGaussianBlur stdDeviation="2"/>
<feComposite in2="hardAlpha" operator="out"/>
<feColorMatrix type="matrix" values="0 0 0 0 1 0 0 0 0 0 0 0 0 0 0 0 0 0 0.5 0"/>
<feBlend mode="normal" in2="BackgroundImageFix" result="effect1_dropShadow_458_17"/>
<feBlend mode="normal" in="SourceGraphic" in2="effect1_dropShadow_458_17" result="shape"/>
</filter>
<filter id="filter2_d_458_17" x="38.332" y="82.2793" width="65.5273" height="86.75" filterUnits="userSpaceOnUse" color-interpolation-filters="sRGB">
<feFlood flood-opacity="0" result="BackgroundImageFix"/>
<feColorMatrix in="SourceAlpha" type="matrix" values="0 0 0 0 0 0 0 0 0 0 0 0 0 0 0 0 0 0 127 0" result="hardAlpha"/>
<feOffset dx="4" dy="8"/>
<feGaussianBlur stdDeviation="2"/>
<feComposite in2="hardAlpha" operator="out"/>
<feColorMatrix type="matrix" values="0 0 0 0 1 0 0 0 0 1 0 0 0 0 0.025 0 0 0 0.5 0"/>
<feBlend mode="normal" in2="BackgroundImageFix" result="effect1_dropShadow_458_17"/>
<feBlend mode="normal" in="SourceGraphic" in2="effect1_dropShadow_458_17" result="shape"/>
</filter>
<linearGradient id="paint0_linear_458_17" x1="104.074" y1="86.5" x2="552.192" y2="93.6466" gradientUnits="userSpaceOnUse">
<stop offset="0.0001" stop-color="#00FF00"/>
<stop offset="0.475" stop-color="#FFAE00"/>
<stop offset="1" stop-color="#FF0000"/>
</linearGradient>
</defs>
</svg>
