<svg width="118" height="219" viewBox="0 0 118 219" fill="none" xmlns="http://www.w3.org/2000/svg">
<g filter="url(#filter0_d_458_12)">
<path d="M6.32102 97V24.2727H21.6974V56.3395H22.6562L48.8281 24.2727H67.2585L40.2699 56.8366L67.5781 97H49.1832L29.2614 67.0994L21.6974 76.3324V97H6.32102Z" fill="#1EFF00"/>
</g>
<g filter="url(#filter1_d_458_12)">
<path d="M32.1023 199H6.32102V126.273H32.3153C39.6307 126.273 45.928 127.729 51.2074 130.641C56.4867 133.529 60.5469 137.684 63.3878 143.105C66.2524 148.527 67.6847 155.013 67.6847 162.565C67.6847 170.141 66.2524 176.652 63.3878 182.097C60.5469 187.542 56.4631 191.72 51.1364 194.632C45.8333 197.544 39.4886 199 32.1023 199ZM21.6974 185.825H31.4631C36.0085 185.825 39.8319 185.02 42.9332 183.411C46.0582 181.777 48.402 179.256 49.9645 175.847C51.5507 172.414 52.3438 167.987 52.3438 162.565C52.3438 157.191 51.5507 152.8 49.9645 149.391C48.402 145.982 46.0701 143.472 42.9688 141.862C39.8674 140.252 36.044 139.447 31.4986 139.447H21.6974V185.825Z" fill="#FF0000"/>
</g>
<g filter="url(#filter2_d_458_12)">
<path d="M80.1296 104.189C79.8455 101.324 78.6263 99.099 76.4719 97.5128C74.3176 95.9266 71.3938 95.1335 67.7006 95.1335C65.1912 95.1335 63.0723 95.4886 61.3441 96.1989C59.6159 96.8854 58.2901 97.8442 57.3668 99.0753C56.4672 100.306 56.0174 101.703 56.0174 103.266C55.9701 104.568 56.2423 105.704 56.8342 106.675C57.4497 107.645 58.2901 108.486 59.3555 109.196C60.4208 109.883 61.6519 110.486 63.0487 111.007C64.4454 111.504 65.9369 111.93 67.5231 112.286L74.0572 113.848C77.2295 114.558 80.1415 115.505 82.793 116.689C85.4445 117.873 87.7409 119.329 89.6822 121.057C91.6235 122.785 93.1268 124.821 94.1921 127.165C95.2811 129.509 95.8375 132.196 95.8612 135.226C95.8375 139.677 94.7011 143.536 92.4521 146.803C90.2267 150.046 87.007 152.567 82.793 154.366C78.6026 156.142 73.5482 157.03 67.6296 157.03C61.7584 157.03 56.6448 156.13 52.2887 154.331C47.9563 152.532 44.5709 149.868 42.1325 146.341C39.7177 142.79 38.4511 138.398 38.3327 133.166H53.212C53.3777 135.605 54.0761 137.641 55.3072 139.274C56.5619 140.884 58.2309 142.103 60.3143 142.932C62.4213 143.737 64.8005 144.139 67.4521 144.139C70.0562 144.139 72.3171 143.76 74.2347 143.003C76.176 142.245 77.6793 141.192 78.7447 139.842C79.81 138.493 80.3427 136.942 80.3427 135.19C80.3427 133.557 79.8574 132.184 78.8867 131.071C77.9397 129.958 76.543 129.011 74.6964 128.23C72.8735 127.449 70.6362 126.739 67.9847 126.099L60.0657 124.111C53.9341 122.619 49.0927 120.287 45.5415 117.115C41.9904 113.943 40.2267 109.67 40.2504 104.295C40.2267 99.892 41.3986 96.045 43.766 92.7543C46.1571 89.4635 49.436 86.8949 53.6026 85.0483C57.7693 83.2017 62.5041 82.2784 67.8072 82.2784C73.2049 82.2784 77.9161 83.2017 81.9407 85.0483C85.989 86.8949 89.1377 89.4635 91.3867 92.7543C93.6358 96.045 94.7958 99.8565 94.8668 104.189H80.1296Z" fill="#FFE100"/>
</g>
<defs>
<filter id="filter0_d_458_12" x="6.32031" y="24.2734" width="69.2578" height="84.7266" filterUnits="userSpaceOnUse" color-interpolation-filters="sRGB">
<feFlood flood-opacity="0" result="BackgroundImageFix"/>
<feColorMatrix in="SourceAlpha" type="matrix" values="0 0 0 0 0 0 0 0 0 0 0 0 0 0 0 0 0 0 127 0" result="hardAlpha"/>
<feOffset dx="4" dy="8"/>
<feGaussianBlur stdDeviation="2"/>
<feComposite in2="hardAlpha" operator="out"/>
<feColorMatrix type="matrix" values="0 0 0 0 0.383333 0 0 0 0 1 0 0 0 0 0 0 0 0 0.45 0"/>
<feBlend mode="normal" in2="BackgroundImageFix" result="effect1_dropShadow_458_12"/>
<feBlend mode="normal" in="SourceGraphic" in2="effect1_dropShadow_458_12" result="shape"/>
</filter>
<filter id="filter1_d_458_12" x="6.32031" y="126.273" width="69.3633" height="84.7266" filterUnits="userSpaceOnUse" color-interpolation-filters="sRGB">
<feFlood flood-opacity="0" result="BackgroundImageFix"/>
<feColorMatrix in="SourceAlpha" type="matrix" values="0 0 0 0 0 0 0 0 0 0 0 0 0 0 0 0 0 0 127 0" result="hardAlpha"/>
<feOffset dx="4" dy="8"/>
<feGaussianBlur stdDeviation="2"/>
<feComposite in2="hardAlpha" operator="out"/>
<feColorMatrix type="matrix" values="0 0 0 0 1 0 0 0 0 0 0 0 0 0 0 0 0 0 0.5 0"/>
<feBlend mode="normal" in2="BackgroundImageFix" result="effect1_dropShadow_458_12"/>
<feBlend mode="normal" in="SourceGraphic" in2="effect1_dropShadow_458_12" result="shape"/>
</filter>
<filter id="filter2_d_458_12" x="38.332" y="82.2793" width="65.5273" height="86.75" filterUnits="userSpaceOnUse" color-interpolation-filters="sRGB">
<feFlood flood-opacity="0" result="BackgroundImageFix"/>
<feColorMatrix in="SourceAlpha" type="matrix" values="0 0 0 0 0 0 0 0 0 0 0 0 0 0 0 0 0 0 127 0" result="hardAlpha"/>
<feOffset dx="4" dy="8"/>
<feGaussianBlur stdDeviation="2"/>
<feComposite in2="hardAlpha" operator="out"/>
<feColorMatrix type="matrix" values="0 0 0 0 1 0 0 0 0 1 0 0 0 0 0.025 0 0 0 0.5 0"/>
<feBlend mode="normal" in2="BackgroundImageFix" result="effect1_dropShadow_458_12"/>
<feBlend mode="normal" in="SourceGraphic" in2="effect1_dropShadow_458_12" result="shape"/>
</filter>
</defs>
</svg>
